<!-- Generator: Adobe Illustrator 21.1.0, SVG Export Plug-In  -->
<svg version="1.1"
	 xmlns="http://www.w3.org/2000/svg" xmlns:xlink="http://www.w3.org/1999/xlink" xmlns:a="http://ns.adobe.com/AdobeSVGViewerExtensions/3.0/"
	 x="0px" y="0px" width="224.46px" height="217.527px" viewBox="0 0 224.46 217.527"
	 style="overflow:scroll;enable-background:new 0 0 224.46 217.527;" xml:space="preserve">
<style type="text/css">
	.st0{fill:#FFFFFF;}
</style>
<defs>
</defs>
<g>
	<path class="st0" d="M60.716,92.509c5.976-32.749,23.665-49.482,50.199-49.482c14.582,0,26.295,5.02,32.988,15.06l7.649-12.669
		h26.295l-15.299,86.533c-1.673,9.084,1.195,14.103,7.888,14.103c11.713,0,30.119-19.601,30.119-60.477
		c0-39.442-25.816-64.063-68.844-64.063c-59.521,0-107.808,43.266-107.808,110.437c0,39.442,25.816,64.063,69.083,64.063
		c18.406,0,35.617-4.303,50.916-12.43l8.366,20.558c-17.928,8.605-38.008,13.386-59.282,13.386C34.661,217.527,0,184.54,0,131.951
		C0,52.111,59.043,0,131.712,0c58.087,0,92.748,32.988,92.748,85.577c0,52.828-30.119,84.142-61.912,84.142
		c-13.147,0-25.338-4.303-30.836-16.972c-9.084,12.908-21.992,19.362-38.486,19.362c-26.773,0-43.505-16.733-37.768-49.482
		L60.716,92.509z M89.64,125.019c-2.151,11.713,5.976,17.211,15.777,17.211c11.713,0,21.992-7.888,24.621-21.992l5.02-27.729
		c2.151-11.713-6.932-19.601-18.884-19.601s-18.167,5.498-20.318,17.211L89.64,125.019z"/>
</g>
</svg>