<!-- Generator: Adobe Illustrator 21.1.0, SVG Export Plug-In  -->
<svg version="1.1"
	 xmlns="http://www.w3.org/2000/svg" xmlns:xlink="http://www.w3.org/1999/xlink" xmlns:a="http://ns.adobe.com/AdobeSVGViewerExtensions/3.0/"
	 x="0px" y="0px" width="250.497px" height="217.527px" viewBox="0 0 250.497 217.527"
	 style="overflow:scroll;enable-background:new 0 0 250.497 217.527;" xml:space="preserve">
<style type="text/css">
	.st0{fill:#FFFFFF;}
</style>
<defs>
</defs>
<path class="st0" d="M0,56.891c43.028-37.546,29.05-29.599,52.62-45.494s44.946-14.251,52.346,13.429
	c7.4,27.68,7.126,47.138,15.896,82.492s18.088,33.709,22.747,30.147c4.659-3.563,23.295-25.762,32.065-49.057
	c8.77-23.295,3.015-43.85-31.243-31.517c0,0,10.688-49.292,53.168-55.615s53.168,11.217,52.894,44.378s-12.607,46.316-40.013,90.988
	s-74.271,82.218-94.551,80.848c-20.281-1.37-34.258-17.814-41.383-47.687c-7.126-29.873-15.621-61.39-25.488-88.796
	s-18.362-23.569-37.272-8.77L0,56.891z"/>
</svg>